<svg xmlns="http://www.w3.org/2000/svg" width="20" height="20" viewBox="0 0 20 20">
<path fill="#CC252B" d="M1.2,10.6c0.3-1.6,1.4-4.5,2-6c0.3-1.1,0.9-1.1,1.6-0.3C6,5.6,7.2,7,8.4,8.4C9.1,9.1,9.3,10,9,11
	c-0.6,1.7-1.1,3.4-1.8,5.1c-0.4,1.1-0.8,1.2-1.7,0.3c-0.1-0.1-0.1-0.1-0.3-0.2c-0.1,0.8-0.3,1.6-0.4,2.6c0,0-1.4-3.7-2-5
	c-0.2-0.6-0.3-0.7-0.7-1.1C1.9,12.3,1,11.4,1.2,10.6z"/>
<path fill="#3368A3" d="M14.8,16.7c0,1,0,3.1,0,3.1s-2.2-1.4-3-2c-0.4-0.3-1-0.4-1.4-0.3c-0.3,0.1-0.8,0.2-1.1,0.3
	c-0.9,0.2-1.2-0.2-1-1.1c0.1-0.6,0.3-1.1,0.6-1.8c0.4-1.2,0.8-2.4,1.2-3.6c0.3-0.9,0.8-1.4,1.7-1.7c1.9-0.4,3.8-0.8,5.7-1.2
	c2.1-0.5,1.1,1,1,1.3c-0.6,1.6-1.1,3.1-1.6,4.7C16.6,15.6,16,16.4,14.8,16.7z"/>
<path fill="#9969A2" d="M14.8,2.5C15.2,2.4,15.6,2.1,16,2c0.3-0.1,1.3-0.6,1.3-0.6s-0.2,1.4-0.2,2C17,4.4,17,5.1,17.8,5.8
	c0.8,0.8,0.6,1.3-0.6,1.6c-1.8,0.3-3.6,0.7-5.3,1.1c-1.2,0.3-2,0-2.7-0.7C8,6.4,6.8,4.9,5.6,3.6C4.9,2.8,5,2.2,6.1,2
	c1.8-0.4,3.6-0.8,5.3-1.1c1-0.2,1.9,0,2.6,0.8C14.2,1.9,14.5,2.2,14.8,2.5z"/>
</svg>
