<svg xmlns="http://www.w3.org/2000/svg" width="20" height="20" viewBox="0 0 20 20">
<title>Twitter_Logo</title>
<path d="M6.9,17.8c6.6,0,10.3-5.5,10.3-10.3c0-0.2,0-0.3,0-0.5c0.7-0.5,1.3-1.1,1.8-1.9c-0.7,0.3-1.4,0.5-2.1,0.6
	c0.8-0.5,1.3-1.2,1.6-2c-0.7,0.4-1.5,0.7-2.3,0.9c-1.4-1.5-3.7-1.5-5.1-0.2c-0.9,0.9-1.3,2.2-1,3.4C7.1,7.8,4.4,6.4,2.6,4.1
	C1.6,5.8,2.1,7.9,3.7,9c-0.6,0-1.1-0.2-1.6-0.5c0,0,0,0,0,0c0,1.7,1.2,3.2,2.9,3.5c-0.5,0.1-1.1,0.2-1.6,0.1
	c0.5,1.5,1.8,2.5,3.4,2.5c-1.3,1-2.9,1.5-4.5,1.5c-0.3,0-0.6,0-0.9-0.1C3,17.2,4.9,17.8,6.9,17.8"/>
</svg>
